<svg width="176" height="16" viewBox="0 0 176 16" fill="none" xmlns="http://www.w3.org/2000/svg">
    <g clip-path="url(#clip0_627_7501)">
        <path fill-rule="evenodd" clip-rule="evenodd" d="M10.9079 2.88684C11.791 2.78131 12.577 2.49334 12.6498 2.24651C12.7245 2.00147 12.7245 1.39334 12.6498 0.899677C12.577 0.404228 12.1551 0 11.7126 0C11.2701 0 10.1442 0.042927 9.21069 0.0965857L8.05311 0.160976C7.11958 0.214635 5.59046 0.212846 4.65692 0.15561L3.7626 0.101952C2.8272 0.0465044 1.64348 0 1.12631 0C0.609129 0 0.127427 0.404228 0.0546116 0.899677C-0.0182039 1.39334 -0.0182039 1.99968 0.0546116 2.24651C0.127427 2.49334 0.909727 2.78131 1.79471 2.88684C2.6797 2.99237 4.06693 3.13903 4.87911 3.20879C5.68941 3.28033 7.01689 3.28033 7.8272 3.20879C8.6375 3.13724 10.0229 2.99237 10.9079 2.88684ZM10.0382 14.1175C10.5909 14.1175 11.2556 14.0603 11.5132 13.9905L11.5169 13.9923C11.7746 13.9226 11.9557 13.1427 11.9165 12.2591C11.881 11.3773 11.8194 10.1056 11.7839 9.4349C11.7466 8.76595 11.685 7.64091 11.6514 6.9344C11.6122 6.2279 11.5524 5.24773 11.5151 4.75229C11.4777 4.25863 11.1473 3.91163 10.7776 3.98139C10.4079 4.04936 9.59387 4.22464 8.96841 4.36594C8.34107 4.50724 7.85377 5.35505 7.88364 6.25115L7.90978 7.10075C7.93965 7.99685 7.90231 9.42417 7.82763 10.2702C7.75295 11.1162 7.66333 12.2717 7.62412 12.8369C7.58865 13.4021 7.89297 13.9208 8.29626 13.9905C8.70328 14.0603 9.48558 14.1175 10.0382 14.1175ZM4.41249 13.9905C4.00547 14.0603 3.22317 14.1175 2.67052 14.1175C2.11787 14.1175 1.45506 14.0603 1.1974 13.9905C0.937883 13.9207 0.758646 13.1409 0.79412 12.2573C0.829594 11.3755 0.891207 10.1038 0.926681 9.43309L1.05924 6.9326C1.09658 6.22788 1.15633 5.24592 1.19554 4.75048C1.23101 4.25682 1.56335 3.90982 1.93303 3.97958C2.30084 4.04934 3.11488 4.22283 3.74035 4.36413C4.36581 4.50543 4.85498 5.35503 4.82511 6.24934L4.79897 7.09894C4.7691 7.99504 4.80644 9.42236 4.88112 10.2684C4.95394 11.1144 5.04356 12.2698 5.0809 12.835C5.11824 13.4003 4.81764 13.919 4.41249 13.9887V13.9905Z" fill="#FF6E00"/>
    </g>
    <path d="M22.3469 13.1422L20.4866 7.44536C20.356 7.08186 20.2189 6.84998 20.0753 6.74971C19.9448 6.64943 19.7816 6.5993 19.5858 6.5993V13.1422H17.7058V0H19.5858V5.86604H19.997L22.7582 0H23.6394L20.8391 5.92244C21.2177 6.01018 21.531 6.1982 21.779 6.48649C22.0401 6.77478 22.2621 7.18841 22.4448 7.72738L24.3248 13.1422H22.3469Z" fill="#EFEFEF"/>
    <path d="M30.9622 0.0188012H32.098L34.7221 13.161H32.7834L32.0588 9.3631H30.316L29.7285 13.161H28.9256L30.9622 0.0188012ZM30.923 5.302L30.4139 8.62985H31.9022L31.2364 5.302L31.1776 4.54994H30.9426L30.923 5.302Z" fill="#EFEFEF"/>
    <path d="M46.9396 13.1798H45.0597V4.09871L45.1576 3.34665H44.9226L44.903 4.09871L43.3756 13.1798H42.2202L40.399 4.09871L40.3403 3.34665H40.1053L40.2032 4.09871V13.1798H39.4199V0.0188012H41.5153L43.1014 8.047L43.1602 8.79906H43.3952L43.4343 8.047L44.8051 0.0188012H46.9396V13.1798Z" fill="#EFEFEF"/>
    <path d="M54.3794 0V6.22327H56.5334V0H58.4134V13.161H56.5334V6.95652H54.3794V13.161H52.4994V0H54.3794Z" fill="#EFEFEF"/>
    <path d="M68.2197 0.0188012V0.752057H65.8306V6.07286H67.828V6.80611H65.8306V12.4277H68.2197V13.161H63.9507V0.0188012H68.2197Z" fill="#EFEFEF"/>
    <path d="M78.9149 3.62867C78.9149 4.43087 78.7451 5.05131 78.4057 5.49001C78.0663 5.92871 77.6355 6.1794 77.1133 6.24207L76.7999 6.27967V6.48649L77.1133 6.52409C77.4135 6.56169 77.6877 6.66197 77.9357 6.82491C78.1838 6.97532 78.3992 7.17587 78.582 7.42656C78.7647 7.66471 78.9083 7.953 79.0128 8.29142C79.1172 8.61731 79.1694 8.97454 79.1694 9.3631V10.228C79.1694 10.6165 79.1042 10.9926 78.9736 11.3561C78.8431 11.707 78.6538 12.0204 78.4057 12.2961C78.1707 12.5593 77.8835 12.7724 77.5441 12.9354C77.2177 13.0858 76.8521 13.161 76.4474 13.161H73.4513V0H76.2516C76.6433 0 77.0023 0.0689389 77.3287 0.206816C77.655 0.332159 77.9357 0.520173 78.1707 0.770858C78.4057 1.00901 78.5885 1.2973 78.719 1.63572C78.8496 1.97415 78.9149 2.34391 78.9149 2.74501V3.62867ZM76.0166 6.01645C76.4474 6.01645 76.7216 5.85977 76.8391 5.54642C76.9696 5.22052 77.0349 4.65648 77.0349 3.85429V2.85781C77.0349 2.06816 76.9631 1.51665 76.8195 1.20329C76.689 0.889934 76.4279 0.733256 76.0362 0.733256H75.3312V6.01645H76.0166ZM77.2895 9.13749C77.2895 8.28516 77.1851 7.67724 76.9762 7.31375C76.7673 6.93772 76.4474 6.74971 76.0166 6.74971H75.3312V12.4277H76.1929C76.5715 12.4277 76.8456 12.2523 77.0153 11.9013C77.1981 11.5503 77.2895 10.9675 77.2895 10.1528V9.13749Z" fill="#EFEFEF"/>
    <path d="M88.6935 0.0188012V0.752057H86.3044V6.07286H88.3018V6.80611H86.3044V12.4277H88.6935V13.161H84.4245V0.0188012H88.6935Z" fill="#EFEFEF"/>
    <path d="M93.0817 16V12.7286H93.5908C93.7866 12.4779 93.9564 12.1582 94.1 11.7697C94.2566 11.3686 94.3806 10.886 94.472 10.322C94.5765 9.7454 94.6483 9.07481 94.6874 8.31022C94.7397 7.5331 94.7658 6.6369 94.7658 5.62162V0.0188012H99.3873V12.7286H100.406V16H98.5256V13.4806H93.8846V16H93.0817ZM97.5073 12.7286V0.752057H95.5491V5.82844C95.5491 6.59303 95.5295 7.33882 95.4903 8.06581C95.4512 8.78026 95.3859 9.44458 95.2945 10.0588C95.2031 10.6604 95.0791 11.1931 94.9224 11.6569C94.7788 12.1081 94.5961 12.4653 94.3741 12.7286H97.5073Z" fill="#EFEFEF"/>
    <path d="M107.949 5.77203C108.405 5.77203 108.81 5.84724 109.163 5.99765C109.515 6.14806 109.809 6.36114 110.044 6.6369C110.292 6.91265 110.481 7.23228 110.612 7.59577C110.742 7.95926 110.808 8.36036 110.808 8.79906V10.2092C110.808 10.6228 110.736 11.0114 110.592 11.3749C110.449 11.7383 110.253 12.0517 110.005 12.3149C109.757 12.5781 109.463 12.785 109.124 12.9354C108.797 13.0858 108.445 13.161 108.066 13.161H105.089V0.0188012H106.969V5.77203H107.949ZM113.706 0.0188012V13.161H111.826V0.0188012H113.706ZM108.928 8.85546C108.928 8.0282 108.823 7.43282 108.614 7.06933C108.419 6.6933 108.125 6.50529 107.733 6.50529H106.969V12.4277H107.811C108.151 12.4277 108.419 12.2648 108.614 11.9389C108.823 11.613 108.928 11.0239 108.928 10.1716V8.85546Z" fill="#EFEFEF"/>
    <path d="M125.706 5V10.8824H126.864V8.94958H127.897C128.46 8.94958 128.938 8.7563 129.324 8.37815C129.71 8 129.903 7.52941 129.903 6.97479C129.903 6.42017 129.71 5.94958 129.324 5.57143C128.938 5.19328 128.46 5 127.897 5H125.706ZM126.864 7.86555V6.08403H127.897C128.392 6.08403 128.753 6.46219 128.753 6.97479C128.753 7.47899 128.392 7.86555 127.897 7.86555H126.864Z" fill="#FF6E00"/>
    <path d="M137.651 10.8824L136.35 8.66387C137.03 8.35294 137.483 7.68067 137.483 6.94958C137.483 6.41176 137.29 5.94958 136.912 5.57143C136.534 5.19328 136.073 5 135.527 5H133.176V10.8824H134.335V8.84034H135.216L136.4 10.8824H137.651ZM135.527 6.08403C135.964 6.08403 136.325 6.47059 136.325 6.94958C136.325 7.42857 135.964 7.82353 135.527 7.82353H134.335V6.08403H135.527Z" fill="#FF6E00"/>
    <path d="M142.01 8.45378H144.235V7.36134H142.01V6.10924H144.445V5H140.852V10.8824H144.487V9.77311H142.01V8.45378Z" fill="#FF6E00"/>
    <path d="M152.381 5L150.702 7.78151L149.014 5H147.822V10.8824H148.981V7.07563L150.635 9.79832H150.769L152.423 7.06723V10.8824H153.573V5H152.381Z" fill="#FF6E00"/>
    <path d="M157.187 10.8824H158.345V5H157.187V10.8824Z" fill="#FF6E00"/>
    <path d="M164.143 11C164.806 11 165.343 10.8151 165.763 10.4454C166.183 10.0756 166.393 9.57983 166.393 8.95798V5H165.234V8.86555C165.234 9.47899 164.89 9.86555 164.143 9.86555C163.396 9.86555 163.051 9.47899 163.051 8.86555V5H161.901V8.95798C161.901 9.57983 162.111 10.0756 162.531 10.4454C162.951 10.8151 163.488 11 164.143 11Z" fill="#FF6E00"/>
    <path d="M174.514 5L172.835 7.78151L171.147 5H169.955V10.8824H171.114V7.07563L172.767 9.79832H172.902L174.556 7.06723V10.8824H175.706V5H174.514Z" fill="#FF6E00"/>
    <defs>
        <clipPath id="clip0_627_7501">
            <rect width="12.7058" height="14.1176" fill="white"/>
        </clipPath>
    </defs>
</svg>
