<svg xmlns="http://www.w3.org/2000/svg" xmlns:xlink="http://www.w3.org/1999/xlink"><defs><clipPath id="clip0_627_7501"><path fill="#fff" d="M0 0h12.706v14.118H0z"/></clipPath></defs><symbol id="age" viewBox="0 0 16 17"><path fill-rule="evenodd" clip-rule="evenodd" d="M11.22 7.514C10.903 5.646 9.152 4.59 7.295 4.68 4.588 4.94 2.911 7.3 3.06 9.86c.3 3.028 2.865 5.126 5.903 5.282 3.143.072 5.714-1.823 6.902-4.584.006-.015.17-.43.13-.238-.266 1.226-1.145 2.433-2.056 3.274-2.806 2.5-7.122 2.56-9.802-.174-2.215-2.41-2.277-6.068.248-8.295 2.065-1.688 5.093-1.713 6.936.308 1.495 1.76 1.395 4.45-.632 5.774-1.575.974-3.899.576-4.526-1.295-.35-1.131.266-2.587 1.621-2.608.359.007.764.171.97.458-.63-1.547-3.987-.565-3.587 2.13.344 1.931 2.236 3.024 4.244 2.93 2.924-.269 4.737-2.709 4.577-5.355-.324-3.13-3.097-5.3-6.38-5.46C4.208 1.932 1.43 3.89.146 6.745c-.006.015-.184.444-.14.246.287-1.268 1.237-2.515 2.221-3.384C5.26 1.022 9.925.96 12.822 3.787c2.394 2.49 2.46 6.272-.268 8.575-2.232 1.745-5.506 1.77-7.497-.32-1.616-1.818-1.507-4.6.684-5.968 1.702-1.007 4.213-.595 4.891 1.339.597 1.772-1.223 3.33-2.548 2.455 1.031 1.06 3.406.019 3.135-2.353z" fill="currentColor"/></symbol><symbol id="burger" viewBox="0 0 24 24"><path d="M3 18h18v-2H3v2zm0-5h18v-2H3v2zm0-7v2h18V6H3z" fill="currentColor"/></symbol><symbol id="cart" viewBox="0 0 16 16"><path d="M13.41 9.5H5.243l.176 1H13.5v1H4.58L3.08 3H1V2h2.92l.264 1.5H14.61l-1.2 6zM5.5 14a1 1 0 100-2 1 1 0 000 2zm7 0a1 1 0 100-2 1 1 0 000 2z" fill="currentColor"/></symbol><symbol id="chevron-left" viewBox="0 0 32 32"><path fill-rule="evenodd" clip-rule="evenodd" d="M21.333 24.632L12.272 16l9.061-8.632-2.136-2.034L8 16l11.197 10.667 2.136-2.035z" fill="currentColor"/></symbol><symbol id="chevron-right" viewBox="0 0 32 32"><path fill-rule="evenodd" clip-rule="evenodd" d="M10.667 24.632L19.728 16l-9.061-8.632 2.136-2.034L24 16 12.803 26.667l-2.136-2.035z" fill="currentColor"/></symbol><symbol id="heart-outline" viewBox="0 0 24 24"><path fill-rule="evenodd" clip-rule="evenodd" d="M11.305 4.534c.274.247.505.497.696.726a6.97 6.97 0 01.695-.726C13.556 3.755 14.833 3 16.544 3c2.841 0 5.177 2.37 5.206 5.28.027 2.61-.923 5.016-2.906 7.36-1.63 1.931-3.756 3.326-5.6 4.536-.28.185-.556.365-.822.543l-.421.281-.422-.281a121.58 121.58 0 00-.824-.544c-1.843-1.21-3.968-2.604-5.598-4.534-1.98-2.344-2.93-4.75-2.907-7.36C2.28 5.37 4.616 3 7.457 3c1.711 0 2.987.755 3.848 1.534zM3.25 8.292C3.275 5.904 5.187 4 7.457 4c1.832 0 3.077 1.061 3.775 1.9l.769.923.768-.923c.698-.839 1.943-1.9 3.775-1.9 2.27 0 4.182 1.905 4.206 4.29.024 2.33-.813 4.51-2.67 6.704-1.529 1.812-3.52 3.12-5.37 4.337-.24.157-.477.312-.71.467-.233-.155-.47-.31-.71-.468-1.85-1.216-3.84-2.524-5.37-4.334C4.067 12.8 3.23 10.62 3.25 8.292z" fill="currentColor"/></symbol><symbol id="heart" viewBox="0 0 16 16"><path d="M8 14l-.28-.188c-1.338-.892-3.03-1.901-4.282-3.384C2.118 8.864 1.484 7.26 1.5 5.52 1.52 3.58 3.077 2 4.972 2 6.475 2 7.475 2.875 8 3.507 8.526 2.875 9.526 2 11.03 2c1.893 0 3.45 1.58 3.47 3.52.018 1.74-.616 3.344-1.937 4.907-1.253 1.484-2.945 2.493-4.281 3.386L8 14z" fill="currentColor"/></symbol><symbol id="logo-mobile" viewBox="0 0 176 16"><g fill="none"><g clip-path="url(#clip0_627_7501)"><path fill-rule="evenodd" clip-rule="evenodd" d="M10.908 2.887c.883-.106 1.669-.394 1.742-.64.075-.246.075-.854 0-1.347-.073-.496-.495-.9-.937-.9-.443 0-1.569.043-2.502.097L8.053.16A34.69 34.69 0 014.657.156L3.763.102A58.285 58.285 0 001.126 0C.61 0 .127.404.055.9c-.073.493-.073 1.1 0 1.347.072.246.855.534 1.74.64.885.105 2.272.252 3.084.322.81.071 2.138.071 2.948 0 .81-.072 2.196-.217 3.08-.322zm-.87 11.23c.553 0 1.218-.057 1.475-.127l.004.002c.258-.07.439-.85.4-1.733a297.5 297.5 0 00-.133-2.824c-.037-.67-.099-1.794-.133-2.5-.039-.707-.099-1.687-.136-2.183-.037-.493-.368-.84-.737-.77-.37.067-1.184.243-1.81.384-.627.141-1.114.99-1.084 1.885l.026.85c.03.896-.008 2.323-.082 3.17-.075.845-.165 2-.204 2.566-.035.565.269 1.084.672 1.154.407.07 1.19.127 1.742.127zm-5.626-.127c-.407.07-1.189.127-1.741.127-.553 0-1.216-.057-1.474-.127-.26-.07-.438-.85-.403-1.733.036-.881.097-2.153.133-2.824l.132-2.5c.038-.705.097-1.687.137-2.183.035-.493.367-.84.737-.77.368.07 1.182.243 1.807.384.626.141 1.115.991 1.085 1.885L4.8 7.1c-.03.896.007 2.323.082 3.17.073.845.163 2 .2 2.566.037.565-.263 1.084-.669 1.154v.002z" fill="#FF6E00"/></g><path d="M22.347 13.142l-1.86-5.697c-.131-.363-.268-.595-.412-.695a.78.78 0 00-.49-.15v6.542h-1.88V0h1.88v5.866h.412L22.758 0h.881l-2.8 5.922c.379.088.692.276.94.564.261.289.483.702.666 1.241l1.88 5.415h-1.978zM30.962.019h1.136l2.624 13.142h-1.939l-.724-3.798h-1.743l-.587 3.798h-.803L30.962.019zm-.039 5.283l-.51 3.328h1.49l-.667-3.328-.058-.752h-.235l-.02.752zM46.94 13.18h-1.88V4.099l.098-.752h-.235l-.02.752-1.527 9.08H42.22L40.4 4.1l-.059-.752h-.235l.098.752v9.08h-.783V.02h2.095l1.586 8.028.06.752h.234l.04-.752L44.806.02h2.135v13.16zM54.38 0v6.223h2.153V0h1.88v13.161h-1.88V6.957H54.38v6.204H52.5V0h1.88zm13.84.019v.733h-2.39v5.32h1.998v.734h-1.997v5.622h2.389v.733h-4.27V.019h4.27zm10.695 3.61c0 .802-.17 1.422-.51 1.861-.339.439-.77.69-1.292.752l-.313.038v.206l.313.038c.3.038.575.138.823.3.248.151.463.352.646.603.183.238.326.526.43.864.105.326.157.684.157 1.072v.865c0 .389-.065.765-.195 1.128-.13.351-.32.664-.568.94a2.715 2.715 0 01-.862.64 2.59 2.59 0 01-1.097.225h-2.996V0h2.8c.392 0 .751.069 1.078.207.326.125.607.313.842.564.235.238.417.526.548.865.13.338.196.708.196 1.109v.884zm-2.898 2.387c.43 0 .705-.156.822-.47.13-.325.196-.89.196-1.692v-.996c0-.79-.072-1.341-.215-1.655-.131-.313-.392-.47-.784-.47h-.705v5.283h.686zm1.273 3.121c0-.852-.105-1.46-.314-1.823-.209-.376-.529-.564-.96-.564h-.685v5.678h.862c.379 0 .653-.176.822-.527.183-.35.275-.934.275-1.748V9.137zM88.694.019v.733h-2.39v5.32h1.998v.734h-1.998v5.622h2.39v.733h-4.27V.019h4.27zM93.082 16v-3.271h.509c.196-.251.365-.57.509-.96.157-.4.28-.883.372-1.447a15.99 15.99 0 00.215-2.012c.053-.777.079-1.673.079-2.688V.019h4.621v12.71h1.019V16h-1.88v-2.52h-4.641V16h-.803zm4.425-3.271V.752H95.55v5.076c0 .765-.02 1.51-.059 2.238a21.722 21.722 0 01-.195 1.993 9.452 9.452 0 01-.373 1.598c-.143.451-.326.808-.548 1.072h3.133zm10.442-6.957c.456 0 .861.075 1.214.226.352.15.646.363.881.639.248.276.437.595.568.959.13.363.196.764.196 1.203v1.41c0 .414-.072.802-.216 1.166a2.906 2.906 0 01-.587.94c-.248.263-.542.47-.881.62a2.5 2.5 0 01-1.058.226h-2.977V.019h1.88v5.753h.98zm5.757-5.753V13.16h-1.88V.019h1.88zm-4.778 8.836c0-.827-.105-1.422-.314-1.786-.195-.376-.489-.564-.881-.564h-.764v5.923h.842c.34 0 .608-.163.803-.49.209-.325.314-.914.314-1.766V8.855z" fill="#EFEFEF"/><path d="M125.706 5v5.882h1.158V8.95h1.033c.563 0 1.041-.194 1.427-.572a1.89 1.89 0 00.579-1.403 1.89 1.89 0 00-.579-1.404A1.967 1.967 0 00127.897 5h-2.191zm1.158 2.866V6.084h1.033c.495 0 .856.378.856.89 0 .505-.361.892-.856.892h-1.033zm10.787 3.016l-1.301-2.218c.68-.311 1.133-.983 1.133-1.714 0-.538-.193-1-.571-1.379A1.886 1.886 0 00135.527 5h-2.351v5.882h1.159V8.84h.881l1.184 2.042h1.251zm-2.124-4.798c.437 0 .798.387.798.866s-.361.874-.798.874h-1.192v-1.74h1.192zm6.483 2.37h2.225V7.36h-2.225V6.11h2.435V5h-3.593v5.882h3.635V9.773h-2.477v-1.32zM152.381 5l-1.679 2.782L149.014 5h-1.192v5.882h1.159V7.076l1.654 2.722h.134l1.654-2.73v3.814h1.15V5h-1.192zm4.806 5.882h1.158V5h-1.158v5.882zm6.956.118c.663 0 1.2-.185 1.62-.555.42-.37.63-.865.63-1.487V5h-1.159v3.866c0 .613-.344 1-1.091 1s-1.092-.387-1.092-1V5h-1.15v3.958c0 .622.21 1.118.63 1.487.42.37.957.555 1.612.555zm10.371-6l-1.679 2.782L171.147 5h-1.192v5.882h1.159V7.076l1.653 2.722h.135l1.654-2.73v3.814h1.15V5h-1.192z" fill="#FF6E00"/></g></symbol><symbol id="marker" viewBox="0 0 16 17"><path fill-rule="evenodd" clip-rule="evenodd" d="M14.667 4.334h-3.334L8.162 1.162 4.99 4.334H1.333L8 15.667l6.667-11.333zM8.162 3L5.495 5.667l2.667 2.667 2.666-2.667L8.162 3z" fill="currentColor"/></symbol><symbol id="phone" viewBox="0 0 16 16"><path d="M14.967 11.567c-.163-.174-.74-.688-1.798-1.367-1.067-.686-1.853-1.114-2.079-1.213a.12.12 0 00-.122.015c-.364.283-.976.804-1.008.832-.212.182-.212.182-.386.125-.305-.1-1.252-.603-2.078-1.43C6.671 7.7 6.142 6.73 6.042 6.425c-.058-.173-.058-.173.125-.385.028-.033.549-.645.832-1.008a.12.12 0 00.015-.123c-.1-.225-.527-1.012-1.212-2.078-.681-1.059-1.194-1.635-1.368-1.798a.122.122 0 00-.122-.027 10.073 10.073 0 00-3.27 1.869.12.12 0 00-.04.117c.066.304.378 1.575 1.347 3.335.988 1.796 1.673 2.716 3.125 4.163 1.452 1.446 2.401 2.173 4.2 3.161 1.76.969 3.03 1.281 3.334 1.346a.121.121 0 00.117-.04 10.09 10.09 0 001.868-3.27.122.122 0 00-.026-.12z" fill="currentColor"/></symbol><symbol id="size" viewBox="0 0 17 17"><path d="M9.667 2.834h4.5v4.5h-1V4.54l-8.293 8.294h2.793v1h-4.5v-4.5h1v2.793l8.292-8.293H9.667v-1z" fill="currentColor"/></symbol><symbol id="tg" viewBox="0 0 16 16"><path d="M8.373 11.574c-.566.567-1.166 1.1-1.733 1.667-.2.2-.433.3-.7.3-.2 0-.3-.1-.367-.267-.433-1.333-.866-2.7-1.3-4.033-.033-.134-.1-.2-.233-.234-1.033-.333-2.067-.666-3.067-1-.166-.066-.3-.1-.466-.2-.2-.133-.234-.366-.067-.533a1.4 1.4 0 01.6-.367c1.267-.5 2.5-.966 3.767-1.466l9.6-3.7c.6-.234 1.066.1 1 .766-.034.434-.134.834-.234 1.234-.7 3.266-1.4 6.533-2.066 9.8-.167.766-.7.966-1.334.5-1.066-.8-2.133-1.567-3.2-2.367-.1-.033-.133-.067-.2-.1zm-2.4 1h.034c0-.033 0-.067.033-.1.067-.733.133-1.467.2-2.233 0-.167.067-.267.2-.4 1-.867 1.967-1.767 2.933-2.667 1.1-.967 2.167-1.967 3.267-2.933.033-.034.067-.167.133-.234-.1 0-.2-.066-.3-.033-.133.033-.266.1-.366.167-2.4 1.533-4.8 3.033-7.2 4.533-.134.1-.167.167-.1.3.166.5.333 1.033.5 1.533.2.7.433 1.367.666 2.067z" fill="currentColor"/></symbol><symbol id="title-2" viewBox="0 0 120 15"><path d="M.5.077v13.726h2.757v-4.51h2.458c1.339 0 2.478-.451 3.397-1.333.919-.883 1.378-1.98 1.378-3.275 0-1.294-.46-2.392-1.378-3.275C8.192.528 7.054.077 5.715.077H.5zm2.757 6.686V2.607h2.458c1.179 0 2.038.882 2.038 2.078 0 1.176-.86 2.078-2.038 2.078H3.257zm25.673 7.04l-3.097-5.177c1.618-.725 2.697-2.294 2.697-4 0-1.255-.46-2.333-1.359-3.216C26.272.528 25.173.077 23.875.077H18.28v13.726h2.757V9.038h2.098l2.817 4.765h2.978zM23.875 2.607c1.038 0 1.898.902 1.898 2.02 0 1.117-.86 2.038-1.898 2.038h-2.838V2.607h2.838zm15.43 5.529H44.6V5.587h-5.295V2.665h5.794V.077h-8.551v13.726h8.651v-2.589h-5.894V8.136zM63.987.077l-3.997 6.49-4.016-6.49h-2.837v13.726h2.757V4.92l3.937 6.353h.32l3.936-6.372v8.902h2.737V.077h-2.837zm11.437 13.726h2.758V.077h-2.758v13.726zm16.556.274c1.578 0 2.857-.431 3.856-1.294 1-.863 1.499-2.02 1.499-3.47V.076h-2.757v9.02c0 1.431-.82 2.333-2.598 2.333s-2.598-.902-2.598-2.333V.077h-2.737v9.235c0 1.451.5 2.608 1.499 3.471.999.863 2.277 1.294 3.836 1.294zm24.683-14l-3.996 6.49-4.017-6.49h-2.837v13.726h2.757V4.92l3.937 6.353h.319l3.937-6.372v8.902h2.737V.077h-2.837z" fill="currentColor"/></symbol><symbol id="title" viewBox="0 0 1320 210"><path d="M52.004 172.694l-26.25-77.33c-1.65-4.282-3.22-7-4.705-8.152-1.32-1.153-3.137-1.73-5.448-1.73h-.743v87.212H0V.247h14.858v78.07h6.191L53.242.248h8.667L28.973 79.8c4.953 2.306 9.08 8.235 12.382 17.788l26.25 75.106H52.003zM173.732 0h10.401l30.211 172.694h-15.105l-8.915-50.894h-25.012l-7.181 50.894h-7.924L173.732 0zm.743 51.635l-8.172 63h22.783l-10.896-63-.496-9.882h-2.971l-.248 9.882zm207.173 121.059h-14.859V44.471l1.239-9.883h-2.972l-.248 9.883-20.801 128.223h-10.153L310.081 44.471l-.743-9.883h-2.972l1.238 9.883v128.223h-7.924V0h17.582l22.535 124.271.495 9.882h2.972l.495-9.882L363.818 0h17.83v172.694zM494.072.247v82.765h32.441V.247h14.858v172.447h-14.858V90.177h-32.441v82.517h-14.858V.247h14.858zM684.206 0v7.165h-31.202v73.623h26.002V88.2h-26.002v77.082h31.202v7.412h-46.06V0h46.06zm151.012 48.67c0 10.542-1.899 18.612-5.696 24.212-3.632 5.436-8.584 8.565-14.858 9.389l-2.971.247v2.717l2.971.247c6.769.824 12.382 4.612 16.839 11.365 4.458 6.588 6.687 15.235 6.687 25.941v11.859c0 5.271-.743 10.212-2.229 14.824-1.486 4.611-3.632 8.647-6.439 12.105-2.641 3.459-5.943 6.177-9.905 8.153-3.962 1.977-8.337 2.965-13.125 2.965h-30.211V.247h28.23c9.08 0 16.427 3.13 22.04 9.388 5.778 6.26 8.667 14.742 8.667 25.447v13.589zM802.53 80.295c7.099 0 11.804-2.388 14.115-7.165 2.477-4.776 3.715-12.435 3.715-22.976V36.565c0-9.883-1.321-17.212-3.962-21.988-2.477-4.777-6.934-7.165-13.373-7.165h-11.886v72.882h11.391zm20.801 40.765c0-22.4-6.933-33.6-20.801-33.6h-11.391v78.07h13.867c6.769 0 11.474-2.882 14.116-8.647 2.806-5.764 4.209-13.67 4.209-23.717V121.06zM977.162 0v7.165H945.96v73.623h26.001V88.2H945.96v77.082h31.202v7.412h-46.061V0h46.061zm81.658 210v-41.753h6.19c2.48-3.294 4.63-7.494 6.44-12.6 1.98-5.271 3.55-11.612 4.71-19.023 1.32-7.577 2.23-16.389 2.72-26.436.66-10.212.99-21.988.99-35.33V0h52.25v168.247h11.4V210h-14.86v-34.341h-62.16V210h-7.68zm58.2-41.753V7.165h-29.22v70.411a562.6 562.6 0 01-.75 29.4c-.49 9.389-1.32 18.118-2.47 26.189-1.16 7.906-2.73 14.906-4.71 21-1.81 5.929-4.12 10.623-6.93 14.082h44.08zm142.8-92.647c9.91 0 17.67 3.624 23.28 10.87 5.78 7.248 8.67 16.801 8.67 28.659v18.283c0 5.6-.83 10.788-2.48 15.564-1.65 4.777-3.88 8.977-6.68 12.6-2.81 3.459-6.19 6.177-10.16 8.153-3.79 1.977-7.92 2.965-12.38 2.965l-30.21-.247V0h14.86v75.6h15.1zM1320 0v172.694h-14.86V0H1320zm-43.09 115.129c0-21.576-6.19-32.364-18.57-32.364h-13.62v82.517h13.62c5.61 0 10.07-2.635 13.37-7.906 3.47-5.27 5.2-13.341 5.2-24.211v-18.036z" fill="currentColor"/></symbol><symbol id="wa" viewBox="0 0 16 16"><path fill-rule="evenodd" clip-rule="evenodd" d="M12.96 3.034A6.942 6.942 0 008.03 1C4.187 1 1.06 4.112 1.057 7.938a6.894 6.894 0 00.931 3.468L1 15l3.695-.965a6.988 6.988 0 003.332.844h.002c3.842 0 6.97-3.112 6.971-6.937a6.88 6.88 0 00-2.04-4.908zM8.03 13.708h-.003a5.805 5.805 0 01-2.949-.804l-.211-.125-2.193.573.585-2.128-.138-.219a5.733 5.733 0 01-.886-3.067c0-3.18 2.6-5.766 5.797-5.766a5.781 5.781 0 015.791 5.77c-.001 3.18-2.6 5.766-5.794 5.766zm3.177-4.318c-.174-.087-1.031-.507-1.19-.564-.159-.058-.276-.087-.392.087-.116.173-.45.562-.551.68-.102.116-.203.13-.377.042-.174-.087-.736-.27-1.401-.86a5.227 5.227 0 01-.97-1.2c-.1-.174-.01-.268.077-.354.079-.078.174-.203.261-.304.088-.101.117-.174.174-.29.058-.115.03-.216-.014-.303-.043-.086-.392-.94-.537-1.287-.141-.338-.285-.292-.392-.298a7.074 7.074 0 00-.334-.006.641.641 0 00-.464.217c-.16.174-.61.594-.61 1.446 0 .853.625 1.678.711 1.793.087.116 1.229 1.867 2.976 2.618.324.139.656.26.993.365a2.4 2.4 0 001.097.069c.334-.05 1.031-.42 1.176-.825.144-.405.145-.752.101-.824-.043-.072-.16-.116-.334-.202z" fill="currentColor"/></symbol><symbol id="weight" viewBox="0 0 17 17"><path d="M12.505 4.803H10.56c.15-.29.237-.62.237-.974 0-1.2-.96-2.162-2.131-2.162-1.172 0-2.131.974-2.131 2.162 0 .354.087.683.237.974H4.829l-1.495 8.864H14l-1.495-8.864zM8.667 2.868c.523 0 .947.43.947.961a.954.954 0 01-.947.961.954.954 0 01-.947-.96c0-.532.423-.962.947-.962z" fill="currentColor"/></symbol></svg>